<svg width="920" height="240" viewBox="0 0 920 240" fill="none" xmlns="http://www.w3.org/2000/svg" role="img" aria-labelledby="title desc">
  <title id="title">OMWI logo direction 3</title>
  <desc id="desc">Geometric institutional logo with interlocking arcs that form a cradle and seed mark beside the Omugwo Maternal Welfare Initiative wordmark.</desc>
  <rect width="920" height="240" rx="28" fill="#FFF9F2"/>
  <rect x="42" y="42" width="156" height="156" rx="34" fill="#0E2418"/>
  <path d="M120 78C92.938 78 71 99.938 71 127C71 145.76 81.551 162.056 97.045 170.319C86.831 161.697 80.333 148.792 80.333 134.37C80.333 108.41 101.374 87.37 127.333 87.37C143.055 87.37 156.973 95.092 165.5 106.941C160.978 90.404 142.525 78 120 78Z" fill="#7CFF87"/>
  <path d="M163.69 113.769C162.453 99.595 150.562 88.481 136.065 88.481C120.747 88.481 108.329 100.899 108.329 116.217C108.329 129.658 117.887 140.867 130.582 143.42C126.506 135.847 124.468 129.277 124.468 123.71C124.468 110.985 132.547 101.005 148.705 93.769C155.203 97.785 160.059 104.579 161.928 112.575L163.69 113.769Z" fill="#FFB16E"/>
  <path d="M97 145C103.601 156.848 116.256 165 130.815 165C151.446 165 168.385 148.849 169.641 128.531C161.095 141.358 149.797 147.771 135.748 147.771C119.792 147.771 106.876 142.181 97 131V145Z" fill="#E56D4A"/>
  <circle cx="130.5" cy="108.5" r="10.5" fill="#FFF7EF"/>
  <path d="M94 144C104.165 153.135 116.707 157.703 131.628 157.703C146.549 157.703 158.339 150.983 167 137.544" stroke="#F6FBF5" stroke-width="7" stroke-linecap="round"/>
  <path d="M98 145C86.703 136.114 81.055 123.813 81.055 108.095C81.055 82.356 101.916 61.495 127.655 61.495C145.592 61.495 160.809 71.61 168.552 86.448" stroke="#7CFF87" stroke-width="8" stroke-linecap="round"/>
  <path d="M239 84H301V98H254.865V117.88H296.84V131.449H254.865V156H239V84Z" fill="#0B3C2D"/>
  <path d="M310.56 120C310.56 98.78 327.06 82.44 349.84 82.44C372.62 82.44 389.12 98.78 389.12 120C389.12 141.22 372.62 157.56 349.84 157.56C327.06 157.56 310.56 141.22 310.56 120ZM373.16 120C373.16 106.76 363.56 96.28 349.84 96.28C336.12 96.28 326.52 106.76 326.52 120C326.52 133.24 336.12 143.72 349.84 143.72C363.56 143.72 373.16 133.24 373.16 120Z" fill="#0B3C2D"/>
  <path d="M402.353 84H418.109L437.357 137.604L456.717 84H472.137L439.717 156H434.325L402.353 84Z" fill="#0B3C2D"/>
  <path d="M480.751 84H496.507V156H480.751V84Z" fill="#0B3C2D"/>
  <text x="528" y="102" fill="#0E8F57" font-family="Trebuchet MS, Segoe UI, Arial, sans-serif" font-size="38" font-weight="700" letter-spacing="4">OMUGWO</text>
  <text x="528" y="143" fill="#0B3C2D" font-family="Trebuchet MS, Segoe UI, Arial, sans-serif" font-size="29" font-weight="600" letter-spacing="1.7">MATERNAL WELFARE INITIATIVE</text>
  <text x="528" y="177" fill="#D56A41" font-family="Trebuchet MS, Segoe UI, Arial, sans-serif" font-size="18" font-weight="700" letter-spacing="2.7">EVIDENCE-BASED CARE WITH A HUMAN CENTER</text>
</svg>
