<svg width="920" height="240" viewBox="0 0 920 240" fill="none" xmlns="http://www.w3.org/2000/svg" role="img" aria-labelledby="title desc">
  <title id="title">OMWI logo direction 1</title>
  <desc id="desc">Minimal monoline logo with an abstract mother and child inside a leaf-heart form beside the Omugwo Maternal Welfare Initiative wordmark.</desc>
  <rect width="920" height="240" rx="28" fill="#F6FBF5"/>
  <circle cx="120" cy="120" r="76" fill="#E5F5E8"/>
  <path d="M84 132C84 101.072 109.072 76 140 76C149.293 76 157.827 78.19 165.603 82.57C155.535 85.263 148 94.454 148 105.875C148 119.401 158.974 130.375 172.5 130.375C175.792 130.375 178.933 129.725 181.8 128.547C178.611 141.103 171.754 151.41 161.229 159.469C149.513 168.442 135.77 172.929 120 172.929C100.328 172.929 84 155.878 84 132Z" fill="#FFB98D"/>
  <circle cx="121" cy="98" r="13" fill="#0E8F57"/>
  <circle cx="156" cy="95" r="9" fill="#0E8F57" opacity="0.78"/>
  <path d="M86 115C86 86.281 109.281 63 138 63C149.822 63 160.72 66.948 169.45 73.595" stroke="#0E8F57" stroke-width="10" stroke-linecap="round"/>
  <path d="M168.742 74.198C175.459 80.012 181.045 87.676 184.642 96.759" stroke="#0E8F57" stroke-width="10" stroke-linecap="round"/>
  <path d="M87 115.5C87 152.294 120.5 178 120.5 178C120.5 178 154 152.294 154 115.5" stroke="#0E8F57" stroke-width="10" stroke-linecap="round" stroke-linejoin="round"/>
  <path d="M108 119C114.461 110.987 122.794 106.98 133 106.98C145.256 106.98 154.767 111.626 161.533 120.918" stroke="#0B3C2D" stroke-width="8" stroke-linecap="round"/>
  <path d="M214 86H226.4L247.2 126.5L268.2 86H280.5V154H268.7V107.4L250.4 142.7H243.7L225.8 107.4V154H214V86Z" fill="#0B3C2D"/>
  <path d="M295 86H307.7L321 131.8L334.8 86H344.8L358.7 131.8L371.9 86H384.6L363.9 154H352.1L339.6 114.5L326.9 154H315.2L295 86Z" fill="#0B3C2D"/>
  <path d="M394.7 86H407.1V154H394.7V86Z" fill="#0B3C2D"/>
  <text x="433" y="103" fill="#0E8F57" font-family="Trebuchet MS, Segoe UI, Arial, sans-serif" font-size="38" font-weight="700" letter-spacing="4">OMUGWO</text>
  <text x="433" y="144" fill="#0B3C2D" font-family="Trebuchet MS, Segoe UI, Arial, sans-serif" font-size="29" font-weight="600" letter-spacing="1.6">MATERNAL WELFARE INITIATIVE</text>
  <text x="433" y="175" fill="#E56D4A" font-family="Trebuchet MS, Segoe UI, Arial, sans-serif" font-size="18" font-weight="700" letter-spacing="2.8">NURTURED HEALTH FOR EVERY STAGE OF WOMANHOOD</text>
</svg>
